<svg width="19" height="20" viewBox="0 0 19 20" fill="none" xmlns="http://www.w3.org/2000/svg">
<path d="M1.9375 5H17.9375M7.9375 9V15M11.9375 9V15M2.9375 5L3.9375 17C3.9375 17.5304 4.14821 18.0391 4.52329 18.4142C4.89836 18.7893 5.40707 19 5.9375 19H13.9375C14.4679 19 14.9766 18.7893 15.3517 18.4142C15.7268 18.0391 15.9375 17.5304 15.9375 17L16.9375 5M6.9375 5V2C6.9375 1.73478 7.04286 1.48043 7.23039 1.29289C7.41793 1.10536 7.67228 1 7.9375 1H11.9375C12.2027 1 12.4571 1.10536 12.6446 1.29289C12.8321 1.48043 12.9375 1.73478 12.9375 2V5" stroke="#DD0000" stroke-width="2" stroke-linecap="round" stroke-linejoin="round"/>
</svg>
